<?xml version="1.0" encoding="UTF-8" standalone="no"?>
<!DOCTYPE svg PUBLIC "-//W3C//DTD SVG 1.1//EN"
 "http://www.w3.org/Graphics/SVG/1.1/DTD/svg11.dtd">
<!-- Generated by graphviz version 12.1.2 (0)
 -->
<!-- Title: G Pages: 1 -->
<svg width="1093pt" height="708pt"
 viewBox="0.00 0.00 1092.55 708.00" xmlns="http://www.w3.org/2000/svg" xmlns:xlink="http://www.w3.org/1999/xlink">
<g id="graph0" class="graph" transform="scale(1 1) rotate(0) translate(4 704)">
<title>G</title>
<polygon fill="#ffffd9" stroke="none" points="-4,4 -4,-704 1088.55,-704 1088.55,4 -4,4"/>
<g id="clust1" class="cluster">
<title>cluster_abs</title>
<polygon fill="#ffffd9" stroke="#41b6c4" stroke-dasharray="5,2" points="142.55,-440 142.55,-517.25 876.55,-517.25 876.55,-440 142.55,-440"/>
<text text-anchor="middle" x="509.55" y="-499.95" font-family="Times,serif" font-size="14.00" fill="#41b6c4">Abstract Primitives</text>
</g>
<g id="clust2" class="cluster">
<title>cluster_gen</title>
<polygon fill="#ffffd9" stroke="#41b6c4" points="312.55,-8 312.55,-193.25 1076.55,-193.25 1076.55,-8 312.55,-8"/>
<text text-anchor="middle" x="694.55" y="-175.95" font-family="Times,serif" font-size="14.00" fill="#41b6c4">Generic Primitives</text>
</g>
<g id="clust3" class="cluster">
<title>cluster_spe</title>
<polygon fill="#ffffd9" stroke="#41b6c4" points="42.55,-116 42.55,-409.25 304.55,-409.25 304.55,-116 42.55,-116"/>
<text text-anchor="middle" x="173.55" y="-391.95" font-family="Times,serif" font-size="14.00" fill="#41b6c4">Specific Primitives</text>
</g>
<!-- abs_all -->
<g id="node1" class="node">
<title>abs_all</title>
<polygon fill="none" stroke="#081d58" stroke-dasharray="5,2" points="282.68,-484 150.43,-484 150.43,-448 282.68,-448 282.68,-484"/>
<text text-anchor="middle" x="216.55" y="-461.32" font-family="Times,serif" font-size="14.00" fill="#081d58">hugom:prims:all</text>
</g>
<!-- gen_all -->
<g id="node5" class="node">
<title>gen_all</title>
<polygon fill="none" stroke="#081d58" points="541.68,-160 349.43,-160 349.43,-124 541.68,-124 541.68,-160"/>
<text text-anchor="middle" x="445.55" y="-137.32" font-family="Times,serif" font-size="14.00" fill="#081d58">hugom:prims_generic:all</text>
</g>
<!-- abs_all&#45;&gt;gen_all -->
<g id="edge14" class="edge">
<title>abs_all&#45;&gt;gen_all</title>
<path fill="none" stroke="#081d58" stroke-dasharray="5,2" d="M255.29,-447.67C273.15,-438.25 293.65,-425.23 308.55,-409.25 376.63,-336.27 419.65,-223.01 436.91,-170.93"/>
<polygon fill="#081d58" stroke="#081d58" points="440.16,-172.24 439.91,-161.65 433.5,-170.08 440.16,-172.24"/>
</g>
<!-- spe_all -->
<g id="node9" class="node">
<title>spe_all</title>
<polygon fill="none" stroke="#081d58" points="275.68,-376 83.43,-376 83.43,-340 275.68,-340 275.68,-376"/>
<text text-anchor="middle" x="179.55" y="-353.32" font-family="Times,serif" font-size="14.00" fill="#081d58">hugom:prims_specific:all</text>
</g>
<!-- abs_all&#45;&gt;spe_all -->
<g id="edge15" class="edge">
<title>abs_all&#45;&gt;spe_all</title>
<path fill="none" stroke="#081d58" stroke-dasharray="5,2" d="M210.61,-447.97C204.87,-431.53 196.08,-406.35 189.32,-386.97"/>
<polygon fill="#081d58" stroke="#081d58" points="192.71,-386.06 186.11,-377.77 186.1,-388.36 192.71,-386.06"/>
</g>
<!-- abs_adder -->
<g id="node2" class="node">
<title>abs_adder</title>
<polygon fill="none" stroke="#081d58" stroke-dasharray="5,2" points="456.68,-484 300.43,-484 300.43,-448 456.68,-448 456.68,-484"/>
<text text-anchor="middle" x="378.55" y="-461.32" font-family="Times,serif" font-size="14.00" fill="#081d58">hugom:prims:adder</text>
</g>
<!-- gen_adder -->
<g id="node6" class="node">
<title>gen_adder</title>
<polygon fill="none" stroke="#081d58" points="804.68,-52 588.43,-52 588.43,-16 804.68,-16 804.68,-52"/>
<text text-anchor="middle" x="696.55" y="-29.32" font-family="Times,serif" font-size="14.00" fill="#081d58">hugom:prims_generic:adder</text>
</g>
<!-- abs_adder&#45;&gt;gen_adder -->
<g id="edge16" class="edge">
<title>abs_adder&#45;&gt;gen_adder</title>
<path fill="none" stroke="#081d58" stroke-dasharray="5,2" d="M391.41,-447.61C440.77,-380.88 618.22,-140.92 677.28,-61.06"/>
<polygon fill="#081d58" stroke="#081d58" points="679.85,-63.47 682.98,-53.35 674.22,-59.31 679.85,-63.47"/>
</g>
<!-- spe_adder -->
<g id="node10" class="node">
<title>spe_adder</title>
<polygon fill="none" stroke="#081d58" points="271.68,-268 55.43,-268 55.43,-232 271.68,-232 271.68,-268"/>
<text text-anchor="middle" x="163.55" y="-245.32" font-family="Times,serif" font-size="14.00" fill="#081d58">hugom:prims_specific:adder</text>
</g>
<!-- abs_adder&#45;&gt;spe_adder -->
<g id="edge17" class="edge">
<title>abs_adder&#45;&gt;spe_adder</title>
<path fill="none" stroke="#081d58" stroke-dasharray="5,2" d="M367.8,-447.58C351.65,-422.21 319.3,-374.38 284.55,-340 259.19,-314.9 226.37,-291.21 201.31,-274.59"/>
<polygon fill="#081d58" stroke="#081d58" points="203.33,-271.72 193.04,-269.18 199.5,-277.58 203.33,-271.72"/>
</g>
<!-- abs_full_adder -->
<g id="node3" class="node">
<title>abs_full_adder</title>
<polygon fill="none" stroke="#081d58" stroke-dasharray="5,2" points="868.68,-484 682.43,-484 682.43,-448 868.68,-448 868.68,-484"/>
<text text-anchor="middle" x="775.55" y="-461.32" font-family="Times,serif" font-size="14.00" fill="#081d58">hugom:prims:full_adder</text>
</g>
<!-- gen_full_adder -->
<g id="node7" class="node">
<title>gen_full_adder</title>
<polygon fill="none" stroke="#081d58" points="1068.68,-52 822.43,-52 822.43,-16 1068.68,-16 1068.68,-52"/>
<text text-anchor="middle" x="945.55" y="-29.32" font-family="Times,serif" font-size="14.00" fill="#081d58">hugom:prims_generic:full_adder</text>
</g>
<!-- abs_full_adder&#45;&gt;gen_full_adder -->
<g id="edge18" class="edge">
<title>abs_full_adder&#45;&gt;gen_full_adder</title>
<path fill="none" stroke="#081d58" stroke-dasharray="5,2" d="M782.43,-447.61C808.65,-381.28 902.53,-143.84 934.67,-62.54"/>
<polygon fill="#081d58" stroke="#081d58" points="937.8,-64.13 938.22,-53.54 931.29,-61.55 937.8,-64.13"/>
</g>
<!-- spe_full_adder -->
<g id="node11" class="node">
<title>spe_full_adder</title>
<polygon fill="none" stroke="#081d58" points="296.68,-160 50.43,-160 50.43,-124 296.68,-124 296.68,-160"/>
<text text-anchor="middle" x="173.55" y="-137.32" font-family="Times,serif" font-size="14.00" fill="#081d58">hugom:prims_specific:full_adder</text>
</g>
<!-- abs_full_adder&#45;&gt;spe_full_adder -->
<g id="edge19" class="edge">
<title>abs_full_adder&#45;&gt;spe_full_adder</title>
<path fill="none" stroke="#081d58" stroke-dasharray="5,2" d="M743.19,-447.69C641.82,-393.47 330.48,-226.94 216.19,-165.81"/>
<polygon fill="#081d58" stroke="#081d58" points="217.88,-162.74 207.41,-161.11 214.58,-168.91 217.88,-162.74"/>
</g>
<!-- abs_half_adder -->
<g id="node4" class="node">
<title>abs_half_adder</title>
<polygon fill="none" stroke="#081d58" stroke-dasharray="5,2" points="664.55,-484 474.55,-484 474.55,-448 664.55,-448 664.55,-484"/>
<text text-anchor="middle" x="569.55" y="-461.32" font-family="Times,serif" font-size="14.00" fill="#081d58">hugom:prims:half_adder</text>
</g>
<!-- gen_half_adder -->
<g id="node8" class="node">
<title>gen_half_adder</title>
<polygon fill="none" stroke="#081d58" points="570.55,-52 320.55,-52 320.55,-16 570.55,-16 570.55,-52"/>
<text text-anchor="middle" x="445.55" y="-29.32" font-family="Times,serif" font-size="14.00" fill="#081d58">hugom:prims_generic:half_adder</text>
</g>
<!-- abs_half_adder&#45;&gt;gen_half_adder -->
<g id="edge20" class="edge">
<title>abs_half_adder&#45;&gt;gen_half_adder</title>
<path fill="none" stroke="#081d58" stroke-dasharray="5,2" d="M573.37,-447.71C584.16,-394.48 610.42,-229.86 550.55,-116 537.59,-91.35 513.43,-71.91 491.55,-58.26"/>
<polygon fill="#081d58" stroke="#081d58" points="493.39,-55.28 483.01,-53.17 489.81,-61.29 493.39,-55.28"/>
</g>
<!-- gen_all&#45;&gt;gen_adder -->
<g id="edge5" class="edge">
<title>gen_all&#45;&gt;gen_adder</title>
<path fill="none" stroke="#081d58" d="M486.72,-123.61C529.94,-105.36 598.01,-76.62 644.83,-56.84"/>
<polygon fill="#081d58" stroke="#081d58" points="646.12,-60.1 653.97,-52.98 643.4,-53.65 646.12,-60.1"/>
</g>
<!-- gen_all&#45;&gt;gen_full_adder -->
<g id="edge6" class="edge">
<title>gen_all&#45;&gt;gen_full_adder</title>
<path fill="none" stroke="#081d58" d="M527.84,-123.56C616.94,-104.67 758.8,-74.59 852.06,-54.82"/>
<polygon fill="#081d58" stroke="#081d58" points="852.65,-58.27 861.7,-52.78 851.2,-51.43 852.65,-58.27"/>
</g>
<!-- gen_all&#45;&gt;gen_half_adder -->
<g id="edge7" class="edge">
<title>gen_all&#45;&gt;gen_half_adder</title>
<path fill="none" stroke="#081d58" d="M445.55,-123.97C445.55,-107.76 445.55,-83.06 445.55,-63.79"/>
<polygon fill="#081d58" stroke="#081d58" points="449.05,-63.85 445.55,-53.85 442.05,-63.85 449.05,-63.85"/>
</g>
<!-- spe_all&#45;&gt;gen_half_adder -->
<g id="edge8" class="edge">
<title>spe_all&#45;&gt;gen_half_adder</title>
<path fill="none" stroke="#081d58" d="M140.21,-339.61C110.52,-324.62 70.88,-300.28 46.55,-268 5.39,-213.38 -21.02,-168.71 22.55,-116 58.57,-72.44 199.57,-52.08 309,-42.71"/>
<polygon fill="#081d58" stroke="#081d58" points="308.97,-46.22 318.64,-41.91 308.39,-39.25 308.97,-46.22"/>
</g>
<!-- spe_all&#45;&gt;spe_adder -->
<g id="edge9" class="edge">
<title>spe_all&#45;&gt;spe_adder</title>
<path fill="none" stroke="#081d58" d="M176.98,-339.97C174.52,-323.69 170.77,-298.82 167.86,-279.52"/>
<polygon fill="#081d58" stroke="#081d58" points="171.35,-279.2 166.4,-269.84 164.43,-280.25 171.35,-279.2"/>
</g>
<!-- spe_all&#45;&gt;spe_full_adder -->
<g id="edge10" class="edge">
<title>spe_all&#45;&gt;spe_full_adder</title>
<path fill="none" stroke="#081d58" d="M211.3,-339.69C248.02,-317.18 300.99,-275.57 280.55,-232 267.39,-203.93 240.54,-181.64 217.03,-166.38"/>
<polygon fill="#081d58" stroke="#081d58" points="219.17,-163.59 208.83,-161.28 215.47,-169.54 219.17,-163.59"/>
</g>
<!-- spe_adder&#45;&gt;gen_half_adder -->
<g id="edge11" class="edge">
<title>spe_adder&#45;&gt;gen_half_adder</title>
<path fill="none" stroke="#081d58" d="M91.12,-231.59C71.74,-223.28 53.01,-211.08 41.55,-193.25 22.99,-164.36 19.79,-142.56 41.55,-116 75.16,-74.99 205.28,-54.32 308.9,-44.18"/>
<polygon fill="#081d58" stroke="#081d58" points="308.98,-47.68 318.6,-43.25 308.32,-40.72 308.98,-47.68"/>
</g>
<!-- spe_adder&#45;&gt;spe_full_adder -->
<g id="edge12" class="edge">
<title>spe_adder&#45;&gt;spe_full_adder</title>
<path fill="none" stroke="#081d58" d="M165.16,-231.97C166.69,-215.76 169.02,-191.06 170.84,-171.79"/>
<polygon fill="#081d58" stroke="#081d58" points="174.32,-172.13 171.78,-161.85 167.35,-171.47 174.32,-172.13"/>
</g>
<!-- spe_full_adder&#45;&gt;gen_half_adder -->
<g id="edge13" class="edge">
<title>spe_full_adder&#45;&gt;gen_half_adder</title>
<path fill="none" stroke="#081d58" d="M218.16,-123.61C265.3,-105.25 339.7,-76.25 390.46,-56.47"/>
<polygon fill="#081d58" stroke="#081d58" points="391.46,-59.84 399.51,-52.94 388.92,-53.31 391.46,-59.84"/>
</g>
<!-- top -->
<g id="node12" class="node">
<title>top</title>
<polygon fill="none" stroke="#081d58" points="375.05,-700 218.05,-700 218.05,-664 375.05,-664 375.05,-700"/>
<text text-anchor="middle" x="296.55" y="-677.33" font-family="Times,serif" font-size="14.00" fill="#081d58">hugom:example:top</text>
</g>
<!-- array_multiplier -->
<g id="node13" class="node">
<title>array_multiplier</title>
<polygon fill="none" stroke="#081d58" points="568.18,-592 318.93,-592 318.93,-556 568.18,-556 568.18,-592"/>
<text text-anchor="middle" x="443.55" y="-569.33" font-family="Times,serif" font-size="14.00" fill="#081d58">hugom:example:array_multiplier</text>
</g>
<!-- top&#45;&gt;array_multiplier -->
<g id="edge1" class="edge">
<title>top&#45;&gt;array_multiplier</title>
<path fill="none" stroke="#081d58" d="M320.5,-663.73C344.95,-646.1 383.1,-618.59 410.44,-598.88"/>
<polygon fill="#081d58" stroke="#081d58" points="412.33,-601.83 418.39,-593.14 408.23,-596.15 412.33,-601.83"/>
</g>
<!-- wallace_tree_multiplier -->
<g id="node14" class="node">
<title>wallace_tree_multiplier</title>
<polygon fill="none" stroke="#081d58" points="300.68,-592 0.43,-592 0.43,-556 300.68,-556 300.68,-592"/>
<text text-anchor="middle" x="150.55" y="-569.33" font-family="Times,serif" font-size="14.00" fill="#081d58">hugom:example:wallace_tree_multiplier</text>
</g>
<!-- top&#45;&gt;wallace_tree_multiplier -->
<g id="edge2" class="edge">
<title>top&#45;&gt;wallace_tree_multiplier</title>
<path fill="none" stroke="#081d58" d="M272.77,-663.73C248.48,-646.1 210.59,-618.59 183.44,-598.88"/>
<polygon fill="#081d58" stroke="#081d58" points="185.7,-596.19 175.55,-593.15 181.59,-601.86 185.7,-596.19"/>
</g>
<!-- array_multiplier&#45;&gt;abs_adder -->
<g id="edge3" class="edge">
<title>array_multiplier&#45;&gt;abs_adder</title>
<path fill="none" stroke="#081d58" d="M433.11,-555.97C422.84,-539.22 407.01,-513.41 395.04,-493.89"/>
<polygon fill="#081d58" stroke="#081d58" points="398.19,-492.33 389.98,-485.63 392.22,-495.99 398.19,-492.33"/>
</g>
<!-- wallace_tree_multiplier&#45;&gt;abs_all -->
<g id="edge4" class="edge">
<title>wallace_tree_multiplier&#45;&gt;abs_all</title>
<path fill="none" stroke="#081d58" d="M161.16,-555.97C171.58,-539.22 187.66,-513.41 199.81,-493.89"/>
<polygon fill="#081d58" stroke="#081d58" points="202.64,-495.96 204.96,-485.63 196.7,-492.26 202.64,-495.96"/>
</g>
</g>
</svg>
