<?xml version="1.0" encoding="UTF-8" standalone="no"?>
<!DOCTYPE svg PUBLIC "-//W3C//DTD SVG 1.1//EN"
 "http://www.w3.org/Graphics/SVG/1.1/DTD/svg11.dtd">
<!-- Generated by graphviz version 12.1.2 (0)
 -->
<!-- Title: G Pages: 1 -->
<svg width="1102pt" height="708pt"
 viewBox="0.00 0.00 1102.38 708.00" xmlns="http://www.w3.org/2000/svg" xmlns:xlink="http://www.w3.org/1999/xlink">
<g id="graph0" class="graph" transform="scale(1 1) rotate(0) translate(4 704)">
<title>G</title>
<polygon fill="#ffffd9" stroke="none" points="-4,4 -4,-704 1098.38,-704 1098.38,4 -4,4"/>
<g id="clust1" class="cluster">
<title>cluster_abs</title>
<polygon fill="#ffffd9" stroke="#41b6c4" stroke-dasharray="5,2" points="152.38,-440 152.38,-517.25 886.38,-517.25 886.38,-440 152.38,-440"/>
<text text-anchor="middle" x="519.38" y="-499.95" font-family="Times,serif" font-size="14.00" fill="#41b6c4">Abstract Primitives</text>
</g>
<g id="clust2" class="cluster">
<title>cluster_gen</title>
<polygon fill="#ffffd9" stroke="#41b6c4" points="322.38,-8 322.38,-193.25 1086.38,-193.25 1086.38,-8 322.38,-8"/>
<text text-anchor="middle" x="704.38" y="-175.95" font-family="Times,serif" font-size="14.00" fill="#41b6c4">Generic Primitives</text>
</g>
<g id="clust3" class="cluster">
<title>cluster_spe</title>
<polygon fill="#ffffd9" stroke="#41b6c4" points="52.38,-116 52.38,-409.25 314.38,-409.25 314.38,-116 52.38,-116"/>
<text text-anchor="middle" x="183.38" y="-391.95" font-family="Times,serif" font-size="14.00" fill="#41b6c4">Specific Primitives</text>
</g>
<!-- abs_all -->
<g id="node1" class="node">
<title>abs_all</title>
<polygon fill="none" stroke="#081d58" stroke-dasharray="5,2" points="292.5,-484 160.25,-484 160.25,-448 292.5,-448 292.5,-484"/>
<text text-anchor="middle" x="226.38" y="-461.32" font-family="Times,serif" font-size="14.00" fill="#081d58">hugom:prims:all</text>
</g>
<!-- gen_all -->
<g id="node5" class="node">
<title>gen_all</title>
<polygon fill="none" stroke="#081d58" points="551.5,-160 359.25,-160 359.25,-124 551.5,-124 551.5,-160"/>
<text text-anchor="middle" x="455.38" y="-137.32" font-family="Times,serif" font-size="14.00" fill="#081d58">hugom:prims_generic:all</text>
</g>
<!-- abs_all&#45;&gt;gen_all -->
<g id="edge14" class="edge">
<title>abs_all&#45;&gt;gen_all</title>
<path fill="none" stroke="#081d58" stroke-dasharray="5,2" d="M265.11,-447.67C282.97,-438.25 303.47,-425.23 318.38,-409.25 386.45,-336.27 429.47,-223.01 446.73,-170.93"/>
<polygon fill="#081d58" stroke="#081d58" points="449.98,-172.24 449.74,-161.65 443.32,-170.08 449.98,-172.24"/>
</g>
<!-- spe_all -->
<g id="node9" class="node">
<title>spe_all</title>
<polygon fill="none" stroke="#081d58" points="285.5,-376 93.25,-376 93.25,-340 285.5,-340 285.5,-376"/>
<text text-anchor="middle" x="189.38" y="-353.32" font-family="Times,serif" font-size="14.00" fill="#081d58">hugom:prims_specific:all</text>
</g>
<!-- abs_all&#45;&gt;spe_all -->
<g id="edge15" class="edge">
<title>abs_all&#45;&gt;spe_all</title>
<path fill="none" stroke="#081d58" stroke-dasharray="5,2" d="M220.43,-447.97C214.69,-431.53 205.9,-406.35 199.14,-386.97"/>
<polygon fill="#081d58" stroke="#081d58" points="202.53,-386.06 195.93,-377.77 195.92,-388.36 202.53,-386.06"/>
</g>
<!-- abs_adder -->
<g id="node2" class="node">
<title>abs_adder</title>
<polygon fill="none" stroke="#081d58" stroke-dasharray="5,2" points="466.5,-484 310.25,-484 310.25,-448 466.5,-448 466.5,-484"/>
<text text-anchor="middle" x="388.38" y="-461.32" font-family="Times,serif" font-size="14.00" fill="#081d58">hugom:prims:adder</text>
</g>
<!-- gen_adder -->
<g id="node6" class="node">
<title>gen_adder</title>
<polygon fill="none" stroke="#081d58" points="814.5,-52 598.25,-52 598.25,-16 814.5,-16 814.5,-52"/>
<text text-anchor="middle" x="706.38" y="-29.32" font-family="Times,serif" font-size="14.00" fill="#081d58">hugom:prims_generic:adder</text>
</g>
<!-- abs_adder&#45;&gt;gen_adder -->
<g id="edge16" class="edge">
<title>abs_adder&#45;&gt;gen_adder</title>
<path fill="none" stroke="#081d58" stroke-dasharray="5,2" d="M401.23,-447.61C450.59,-380.88 628.05,-140.92 687.1,-61.06"/>
<polygon fill="#081d58" stroke="#081d58" points="689.67,-63.47 692.8,-53.35 684.04,-59.31 689.67,-63.47"/>
</g>
<!-- spe_adder -->
<g id="node10" class="node">
<title>spe_adder</title>
<polygon fill="none" stroke="#081d58" points="281.5,-268 65.25,-268 65.25,-232 281.5,-232 281.5,-268"/>
<text text-anchor="middle" x="173.38" y="-245.32" font-family="Times,serif" font-size="14.00" fill="#081d58">hugom:prims_specific:adder</text>
</g>
<!-- abs_adder&#45;&gt;spe_adder -->
<g id="edge17" class="edge">
<title>abs_adder&#45;&gt;spe_adder</title>
<path fill="none" stroke="#081d58" stroke-dasharray="5,2" d="M377.63,-447.58C361.48,-422.21 329.12,-374.38 294.38,-340 269.01,-314.9 236.19,-291.21 211.13,-274.59"/>
<polygon fill="#081d58" stroke="#081d58" points="213.15,-271.72 202.87,-269.18 209.32,-277.58 213.15,-271.72"/>
</g>
<!-- abs_full_adder -->
<g id="node3" class="node">
<title>abs_full_adder</title>
<polygon fill="none" stroke="#081d58" stroke-dasharray="5,2" points="878.5,-484 692.25,-484 692.25,-448 878.5,-448 878.5,-484"/>
<text text-anchor="middle" x="785.38" y="-461.32" font-family="Times,serif" font-size="14.00" fill="#081d58">hugom:prims:full_adder</text>
</g>
<!-- gen_full_adder -->
<g id="node7" class="node">
<title>gen_full_adder</title>
<polygon fill="none" stroke="#081d58" points="1078.5,-52 832.25,-52 832.25,-16 1078.5,-16 1078.5,-52"/>
<text text-anchor="middle" x="955.38" y="-29.32" font-family="Times,serif" font-size="14.00" fill="#081d58">hugom:prims_generic:full_adder</text>
</g>
<!-- abs_full_adder&#45;&gt;gen_full_adder -->
<g id="edge18" class="edge">
<title>abs_full_adder&#45;&gt;gen_full_adder</title>
<path fill="none" stroke="#081d58" stroke-dasharray="5,2" d="M792.25,-447.61C818.47,-381.28 912.35,-143.84 944.49,-62.54"/>
<polygon fill="#081d58" stroke="#081d58" points="947.62,-64.13 948.04,-53.54 941.11,-61.55 947.62,-64.13"/>
</g>
<!-- spe_full_adder -->
<g id="node11" class="node">
<title>spe_full_adder</title>
<polygon fill="none" stroke="#081d58" points="306.5,-160 60.25,-160 60.25,-124 306.5,-124 306.5,-160"/>
<text text-anchor="middle" x="183.38" y="-137.32" font-family="Times,serif" font-size="14.00" fill="#081d58">hugom:prims_specific:full_adder</text>
</g>
<!-- abs_full_adder&#45;&gt;spe_full_adder -->
<g id="edge19" class="edge">
<title>abs_full_adder&#45;&gt;spe_full_adder</title>
<path fill="none" stroke="#081d58" stroke-dasharray="5,2" d="M753.01,-447.69C651.65,-393.47 340.3,-226.94 226.02,-165.81"/>
<polygon fill="#081d58" stroke="#081d58" points="227.7,-162.74 217.24,-161.11 224.4,-168.91 227.7,-162.74"/>
</g>
<!-- abs_half_adder -->
<g id="node4" class="node">
<title>abs_half_adder</title>
<polygon fill="none" stroke="#081d58" stroke-dasharray="5,2" points="674.38,-484 484.38,-484 484.38,-448 674.38,-448 674.38,-484"/>
<text text-anchor="middle" x="579.38" y="-461.32" font-family="Times,serif" font-size="14.00" fill="#081d58">hugom:prims:half_adder</text>
</g>
<!-- gen_half_adder -->
<g id="node8" class="node">
<title>gen_half_adder</title>
<polygon fill="none" stroke="#081d58" points="580.38,-52 330.38,-52 330.38,-16 580.38,-16 580.38,-52"/>
<text text-anchor="middle" x="455.38" y="-29.32" font-family="Times,serif" font-size="14.00" fill="#081d58">hugom:prims_generic:half_adder</text>
</g>
<!-- abs_half_adder&#45;&gt;gen_half_adder -->
<g id="edge20" class="edge">
<title>abs_half_adder&#45;&gt;gen_half_adder</title>
<path fill="none" stroke="#081d58" stroke-dasharray="5,2" d="M583.19,-447.71C593.98,-394.48 620.24,-229.86 560.38,-116 547.41,-91.35 523.26,-71.91 501.38,-58.26"/>
<polygon fill="#081d58" stroke="#081d58" points="503.22,-55.28 492.83,-53.17 499.63,-61.29 503.22,-55.28"/>
</g>
<!-- gen_all&#45;&gt;gen_adder -->
<g id="edge5" class="edge">
<title>gen_all&#45;&gt;gen_adder</title>
<path fill="none" stroke="#081d58" d="M496.54,-123.61C539.77,-105.36 607.83,-76.62 654.65,-56.84"/>
<polygon fill="#081d58" stroke="#081d58" points="655.94,-60.1 663.79,-52.98 653.22,-53.65 655.94,-60.1"/>
</g>
<!-- gen_all&#45;&gt;gen_full_adder -->
<g id="edge6" class="edge">
<title>gen_all&#45;&gt;gen_full_adder</title>
<path fill="none" stroke="#081d58" d="M537.66,-123.56C626.76,-104.67 768.62,-74.59 861.88,-54.82"/>
<polygon fill="#081d58" stroke="#081d58" points="862.47,-58.27 871.53,-52.78 861.02,-51.43 862.47,-58.27"/>
</g>
<!-- gen_all&#45;&gt;gen_half_adder -->
<g id="edge7" class="edge">
<title>gen_all&#45;&gt;gen_half_adder</title>
<path fill="none" stroke="#081d58" d="M455.38,-123.97C455.38,-107.76 455.38,-83.06 455.38,-63.79"/>
<polygon fill="#081d58" stroke="#081d58" points="458.88,-63.85 455.38,-53.85 451.88,-63.85 458.88,-63.85"/>
</g>
<!-- spe_all&#45;&gt;gen_half_adder -->
<g id="edge8" class="edge">
<title>spe_all&#45;&gt;gen_half_adder</title>
<path fill="none" stroke="#081d58" d="M150.03,-339.61C120.34,-324.62 80.71,-300.28 56.38,-268 15.21,-213.38 -11.2,-168.71 32.38,-116 68.39,-72.44 209.39,-52.08 318.82,-42.71"/>
<polygon fill="#081d58" stroke="#081d58" points="318.79,-46.22 328.47,-41.91 318.21,-39.25 318.79,-46.22"/>
</g>
<!-- spe_all&#45;&gt;spe_adder -->
<g id="edge9" class="edge">
<title>spe_all&#45;&gt;spe_adder</title>
<path fill="none" stroke="#081d58" d="M186.8,-339.97C184.35,-323.69 180.59,-298.82 177.68,-279.52"/>
<polygon fill="#081d58" stroke="#081d58" points="181.17,-279.2 176.22,-269.84 174.25,-280.25 181.17,-279.2"/>
</g>
<!-- spe_all&#45;&gt;spe_full_adder -->
<g id="edge10" class="edge">
<title>spe_all&#45;&gt;spe_full_adder</title>
<path fill="none" stroke="#081d58" d="M221.12,-339.69C257.85,-317.18 310.81,-275.57 290.38,-232 277.21,-203.93 250.36,-181.64 226.85,-166.38"/>
<polygon fill="#081d58" stroke="#081d58" points="228.99,-163.59 218.65,-161.28 225.29,-169.54 228.99,-163.59"/>
</g>
<!-- spe_adder&#45;&gt;gen_half_adder -->
<g id="edge11" class="edge">
<title>spe_adder&#45;&gt;gen_half_adder</title>
<path fill="none" stroke="#081d58" d="M100.94,-231.59C81.56,-223.28 62.83,-211.08 51.38,-193.25 32.82,-164.36 29.61,-142.56 51.38,-116 84.98,-74.99 215.11,-54.32 318.72,-44.18"/>
<polygon fill="#081d58" stroke="#081d58" points="318.8,-47.68 328.43,-43.25 318.14,-40.72 318.8,-47.68"/>
</g>
<!-- spe_adder&#45;&gt;spe_full_adder -->
<g id="edge12" class="edge">
<title>spe_adder&#45;&gt;spe_full_adder</title>
<path fill="none" stroke="#081d58" d="M174.98,-231.97C176.51,-215.76 178.84,-191.06 180.66,-171.79"/>
<polygon fill="#081d58" stroke="#081d58" points="184.14,-172.13 181.6,-161.85 177.17,-171.47 184.14,-172.13"/>
</g>
<!-- spe_full_adder&#45;&gt;gen_half_adder -->
<g id="edge13" class="edge">
<title>spe_full_adder&#45;&gt;gen_half_adder</title>
<path fill="none" stroke="#081d58" d="M227.99,-123.61C275.12,-105.25 349.52,-76.25 400.28,-56.47"/>
<polygon fill="#081d58" stroke="#081d58" points="401.28,-59.84 409.33,-52.94 398.74,-53.31 401.28,-59.84"/>
</g>
<!-- top -->
<g id="node12" class="node">
<title>top</title>
<polygon fill="none" stroke="#081d58" points="384.88,-700 227.88,-700 227.88,-664 384.88,-664 384.88,-700"/>
<text text-anchor="middle" x="306.38" y="-677.33" font-family="Times,serif" font-size="14.00" fill="#081d58">hugom:example:top</text>
</g>
<!-- array_multiplier -->
<g id="node13" class="node">
<title>array_multiplier</title>
<polygon fill="none" stroke="#081d58" points="588.25,-592 328.5,-592 328.5,-556 588.25,-556 588.25,-592"/>
<text text-anchor="middle" x="458.38" y="-569.33" font-family="Times,serif" font-size="14.00" fill="#081d58">hugom:multiplier:array_multiplier</text>
</g>
<!-- top&#45;&gt;array_multiplier -->
<g id="edge1" class="edge">
<title>top&#45;&gt;array_multiplier</title>
<path fill="none" stroke="#081d58" d="M331.13,-663.73C356.45,-646.08 395.97,-618.52 424.25,-598.8"/>
<polygon fill="#081d58" stroke="#081d58" points="425.93,-601.89 432.13,-593.3 421.93,-596.15 425.93,-601.89"/>
</g>
<!-- wallace_tree_multiplier -->
<g id="node14" class="node">
<title>wallace_tree_multiplier</title>
<polygon fill="none" stroke="#081d58" points="310.75,-592 0,-592 0,-556 310.75,-556 310.75,-592"/>
<text text-anchor="middle" x="155.38" y="-569.33" font-family="Times,serif" font-size="14.00" fill="#081d58">hugom:multiplier:wallace_tree_multiplier</text>
</g>
<!-- top&#45;&gt;wallace_tree_multiplier -->
<g id="edge2" class="edge">
<title>top&#45;&gt;wallace_tree_multiplier</title>
<path fill="none" stroke="#081d58" d="M281.78,-663.73C256.63,-646.08 217.36,-618.52 189.27,-598.8"/>
<polygon fill="#081d58" stroke="#081d58" points="191.65,-596.19 181.45,-593.31 187.62,-601.92 191.65,-596.19"/>
</g>
<!-- array_multiplier&#45;&gt;abs_adder -->
<g id="edge3" class="edge">
<title>array_multiplier&#45;&gt;abs_adder</title>
<path fill="none" stroke="#081d58" d="M447.13,-555.97C436.07,-539.22 419.02,-513.41 406.13,-493.89"/>
<polygon fill="#081d58" stroke="#081d58" points="409.09,-492.02 400.66,-485.6 403.25,-495.88 409.09,-492.02"/>
</g>
<!-- wallace_tree_multiplier&#45;&gt;abs_all -->
<g id="edge4" class="edge">
<title>wallace_tree_multiplier&#45;&gt;abs_all</title>
<path fill="none" stroke="#081d58" d="M166.78,-555.97C178,-539.22 195.29,-513.41 208.36,-493.89"/>
<polygon fill="#081d58" stroke="#081d58" points="211.26,-495.85 213.92,-485.6 205.44,-491.96 211.26,-495.85"/>
</g>
</g>
</svg>
