<?xml version="1.0" encoding="UTF-8" standalone="no"?>
<!DOCTYPE svg PUBLIC "-//W3C//DTD SVG 1.1//EN"
 "http://www.w3.org/Graphics/SVG/1.1/DTD/svg11.dtd">
<!-- Generated by graphviz version 12.1.2 (0)
 -->
<!-- Title: G Pages: 1 -->
<svg width="1273pt" height="1117pt"
 viewBox="0.00 0.00 1273.00 1117.00" xmlns="http://www.w3.org/2000/svg" xmlns:xlink="http://www.w3.org/1999/xlink">
<g id="graph0" class="graph" transform="scale(1 1) rotate(0) translate(4 1113)">
<title>G</title>
<polygon fill="#ffffd9" stroke="none" points="-4,4 -4,-1113 1269,-1113 1269,4 -4,4"/>
<g id="clust1" class="cluster">
<title>cluster_abs</title>
<polygon fill="#ffffd9" stroke="#41b6c4" stroke-dasharray="5,2" points="523,-763 523,-840.25 1257,-840.25 1257,-763 523,-763"/>
<text text-anchor="middle" x="890" y="-822.95" font-family="Times,serif" font-size="14.00" fill="#41b6c4">Abstract Primitives</text>
</g>
<g id="clust2" class="cluster">
<title>cluster_gen</title>
<polygon fill="#ffffd9" stroke="#41b6c4" points="8,-8 8,-236.25 772,-236.25 772,-8 8,-8"/>
<text text-anchor="middle" x="390" y="-218.95" font-family="Times,serif" font-size="14.00" fill="#41b6c4">Generic Primitives</text>
</g>
<g id="clust3" class="cluster">
<title>cluster_spe</title>
<polygon fill="#ffffd9" stroke="#41b6c4" points="469,-310 469,-689.25 731,-689.25 731,-310 469,-310"/>
<text text-anchor="middle" x="600" y="-671.95" font-family="Times,serif" font-size="14.00" fill="#41b6c4">Specific Primitives</text>
</g>
<g id="clust4" class="cluster">
<title>cluster_sec</title>
<polygon fill="#ffffd9" stroke="#41b6c4" points="801,-461 801,-689.25 1025,-689.25 1025,-461 801,-461"/>
<text text-anchor="middle" x="913" y="-671.95" font-family="Times,serif" font-size="14.00" fill="#41b6c4">Secret Primitives</text>
</g>
<!-- abs_all -->
<g id="node1" class="node">
<title>abs_all</title>
<polygon fill="none" stroke="#081d58" stroke-dasharray="5,2" points="663.12,-807 530.88,-807 530.88,-771 663.12,-771 663.12,-807"/>
<text text-anchor="middle" x="597" y="-784.33" font-family="Times,serif" font-size="14.00" fill="#081d58">hugom:prims:all</text>
</g>
<!-- gen_all -->
<g id="node5" class="node">
<title>gen_all</title>
<polygon fill="none" stroke="#081d58" points="469.12,-203 276.88,-203 276.88,-167 469.12,-167 469.12,-203"/>
<text text-anchor="middle" x="373" y="-180.32" font-family="Times,serif" font-size="14.00" fill="#081d58">hugom:prims_generic:all</text>
</g>
<!-- abs_all&#45;&gt;gen_all -->
<g id="edge21" class="edge">
<title>abs_all&#45;&gt;gen_all</title>
<path fill="none" stroke="#081d58" stroke-dasharray="5,2" d="M560.69,-770.66C530.15,-754.11 487.91,-726.23 465,-689.25 367.22,-531.42 367.78,-295.79 371.28,-214.65"/>
<polygon fill="#081d58" stroke="#081d58" points="374.77,-214.87 371.77,-204.71 367.78,-214.53 374.77,-214.87"/>
</g>
<!-- spe_all -->
<g id="node9" class="node">
<title>spe_all</title>
<polygon fill="none" stroke="#081d58" points="693.12,-656 500.88,-656 500.88,-620 693.12,-620 693.12,-656"/>
<text text-anchor="middle" x="597" y="-633.33" font-family="Times,serif" font-size="14.00" fill="#081d58">hugom:prims_specific:all</text>
</g>
<!-- abs_all&#45;&gt;spe_all -->
<g id="edge22" class="edge">
<title>abs_all&#45;&gt;spe_all</title>
<path fill="none" stroke="#081d58" stroke-dasharray="5,2" d="M597,-770.62C597,-745.27 597,-697.88 597,-667.42"/>
<polygon fill="#081d58" stroke="#081d58" points="600.5,-667.79 597,-657.79 593.5,-667.79 600.5,-667.79"/>
</g>
<!-- sec_all -->
<g id="node12" class="node">
<title>sec_all</title>
<polygon fill="none" stroke="#081d58" points="992.62,-656 809.38,-656 809.38,-620 992.62,-620 992.62,-656"/>
<text text-anchor="middle" x="901" y="-633.33" font-family="Times,serif" font-size="14.00" fill="#081d58">hugom:prims_secret:all</text>
</g>
<!-- abs_all&#45;&gt;sec_all -->
<g id="edge23" class="edge">
<title>abs_all&#45;&gt;sec_all</title>
<path fill="none" stroke="#081d58" stroke-dasharray="5,2" d="M632.47,-770.62C687.84,-743.48 794.78,-691.06 855.67,-661.22"/>
<polygon fill="#081d58" stroke="#081d58" points="856.96,-664.48 864.4,-656.94 853.88,-658.2 856.96,-664.48"/>
</g>
<!-- abs_adder -->
<g id="node2" class="node">
<title>abs_adder</title>
<polygon fill="none" stroke="#081d58" stroke-dasharray="5,2" points="837.12,-807 680.88,-807 680.88,-771 837.12,-771 837.12,-807"/>
<text text-anchor="middle" x="759" y="-784.33" font-family="Times,serif" font-size="14.00" fill="#081d58">hugom:prims:adder</text>
</g>
<!-- gen_adder -->
<g id="node6" class="node">
<title>gen_adder</title>
<polygon fill="none" stroke="#081d58" points="232.12,-52 15.88,-52 15.88,-16 232.12,-16 232.12,-52"/>
<text text-anchor="middle" x="124" y="-29.32" font-family="Times,serif" font-size="14.00" fill="#081d58">hugom:prims_generic:adder</text>
</g>
<!-- abs_adder&#45;&gt;gen_adder -->
<g id="edge24" class="edge">
<title>abs_adder&#45;&gt;gen_adder</title>
<path fill="none" stroke="#081d58" stroke-dasharray="5,2" d="M815.96,-770.58C890.96,-747.14 1015.02,-706.39 1029,-689.25 1086.15,-619.16 1059,-578.43 1059,-488 1059,-488 1059,-488 1059,-335 1059,-195.17 922.9,-218.74 793,-167 694.83,-127.9 408.24,-79.14 243.76,-53.21"/>
<polygon fill="#081d58" stroke="#081d58" points="244.54,-49.79 234.12,-51.69 243.45,-56.7 244.54,-49.79"/>
</g>
<!-- spe_adder -->
<g id="node10" class="node">
<title>spe_adder</title>
<polygon fill="none" stroke="#081d58" points="693.12,-505 476.88,-505 476.88,-469 693.12,-469 693.12,-505"/>
<text text-anchor="middle" x="585" y="-482.32" font-family="Times,serif" font-size="14.00" fill="#081d58">hugom:prims_specific:adder</text>
</g>
<!-- abs_adder&#45;&gt;spe_adder -->
<g id="edge25" class="edge">
<title>abs_adder&#45;&gt;spe_adder</title>
<path fill="none" stroke="#081d58" stroke-dasharray="5,2" d="M701.35,-770.52C626.66,-747.31 504.46,-707.15 492,-689.25 451.55,-631.16 517.22,-552.66 557.41,-513.06"/>
<polygon fill="#081d58" stroke="#081d58" points="559.69,-515.73 564.46,-506.28 554.83,-510.69 559.69,-515.73"/>
</g>
<!-- sec_adder -->
<g id="node13" class="node">
<title>sec_adder</title>
<polygon fill="none" stroke="#081d58" points="1016.62,-505 809.38,-505 809.38,-469 1016.62,-469 1016.62,-505"/>
<text text-anchor="middle" x="913" y="-482.32" font-family="Times,serif" font-size="14.00" fill="#081d58">hugom:prims_secret:adder</text>
</g>
<!-- abs_adder&#45;&gt;sec_adder -->
<g id="edge26" class="edge">
<title>abs_adder&#45;&gt;sec_adder</title>
<path fill="none" stroke="#081d58" stroke-dasharray="5,2" d="M810.35,-770.57C878.26,-747 990.72,-706.01 1002,-689.25 1041.13,-631.11 978.48,-552.95 939.82,-513.32"/>
<polygon fill="#081d58" stroke="#081d58" points="942.59,-511.14 933.05,-506.54 937.64,-516.09 942.59,-511.14"/>
</g>
<!-- abs_full_adder -->
<g id="node3" class="node">
<title>abs_full_adder</title>
<polygon fill="none" stroke="#081d58" stroke-dasharray="5,2" points="1041.12,-807 854.88,-807 854.88,-771 1041.12,-771 1041.12,-807"/>
<text text-anchor="middle" x="948" y="-784.33" font-family="Times,serif" font-size="14.00" fill="#081d58">hugom:prims:full_adder</text>
</g>
<!-- gen_full_adder -->
<g id="node7" class="node">
<title>gen_full_adder</title>
<polygon fill="none" stroke="#081d58" points="496.12,-52 249.88,-52 249.88,-16 496.12,-16 496.12,-52"/>
<text text-anchor="middle" x="373" y="-29.32" font-family="Times,serif" font-size="14.00" fill="#081d58">hugom:prims_generic:full_adder</text>
</g>
<!-- abs_full_adder&#45;&gt;gen_full_adder -->
<g id="edge27" class="edge">
<title>abs_full_adder&#45;&gt;gen_full_adder</title>
<path fill="none" stroke="#081d58" stroke-dasharray="5,2" d="M982.96,-770.51C1012.25,-753.86 1052.46,-725.93 1073,-689.25 1117.01,-610.65 1097,-578.08 1097,-488 1097,-488 1097,-488 1097,-335 1097,-259.58 1125.13,-221.51 1073,-167 1053.06,-146.15 690.17,-85.55 494.96,-54.23"/>
<polygon fill="#081d58" stroke="#081d58" points="495.71,-50.81 485.28,-52.68 494.6,-57.72 495.71,-50.81"/>
</g>
<!-- spe_full_adder -->
<g id="node11" class="node">
<title>spe_full_adder</title>
<polygon fill="none" stroke="#081d58" points="723.12,-354 476.88,-354 476.88,-318 723.12,-318 723.12,-354"/>
<text text-anchor="middle" x="600" y="-331.32" font-family="Times,serif" font-size="14.00" fill="#081d58">hugom:prims_specific:full_adder</text>
</g>
<!-- abs_full_adder&#45;&gt;spe_full_adder -->
<g id="edge28" class="edge">
<title>abs_full_adder&#45;&gt;spe_full_adder</title>
<path fill="none" stroke="#081d58" stroke-dasharray="5,2" d="M908.88,-770.65C875.26,-754.01 827.52,-726 797,-689.25 726.8,-604.72 758.62,-555.17 702,-461 679.74,-423.98 647.05,-386.34 624.72,-362.4"/>
<polygon fill="#081d58" stroke="#081d58" points="627.45,-360.19 618.04,-355.32 622.36,-365 627.45,-360.19"/>
</g>
<!-- abs_half_adder -->
<g id="node4" class="node">
<title>abs_half_adder</title>
<polygon fill="none" stroke="#081d58" stroke-dasharray="5,2" points="1249,-807 1059,-807 1059,-771 1249,-771 1249,-807"/>
<text text-anchor="middle" x="1154" y="-784.33" font-family="Times,serif" font-size="14.00" fill="#081d58">hugom:prims:half_adder</text>
</g>
<!-- gen_half_adder -->
<g id="node8" class="node">
<title>gen_half_adder</title>
<polygon fill="none" stroke="#081d58" points="764,-52 514,-52 514,-16 764,-16 764,-52"/>
<text text-anchor="middle" x="639" y="-29.32" font-family="Times,serif" font-size="14.00" fill="#081d58">hugom:prims_generic:half_adder</text>
</g>
<!-- abs_half_adder&#45;&gt;gen_half_adder -->
<g id="edge29" class="edge">
<title>abs_half_adder&#45;&gt;gen_half_adder</title>
<path fill="none" stroke="#081d58" stroke-dasharray="5,2" d="M1153.12,-770.76C1150.86,-724.81 1145,-595.6 1145,-488 1145,-488 1145,-488 1145,-335 1145,-258.82 1162.87,-222.8 1111,-167 1063.73,-116.14 884.91,-76.48 761.47,-54.41"/>
<polygon fill="#081d58" stroke="#081d58" points="762.4,-51.02 751.94,-52.73 761.18,-57.92 762.4,-51.02"/>
</g>
<!-- gen_all&#45;&gt;gen_adder -->
<g id="edge5" class="edge">
<title>gen_all&#45;&gt;gen_adder</title>
<path fill="none" stroke="#081d58" d="M343.95,-166.62C299.06,-139.76 212.81,-88.14 162.68,-58.15"/>
<polygon fill="#081d58" stroke="#081d58" points="164.54,-55.18 154.16,-53.05 160.95,-61.19 164.54,-55.18"/>
</g>
<!-- gen_all&#45;&gt;gen_full_adder -->
<g id="edge6" class="edge">
<title>gen_all&#45;&gt;gen_full_adder</title>
<path fill="none" stroke="#081d58" d="M373,-166.62C373,-141.27 373,-93.88 373,-63.42"/>
<polygon fill="#081d58" stroke="#081d58" points="376.5,-63.79 373,-53.79 369.5,-63.79 376.5,-63.79"/>
</g>
<!-- gen_all&#45;&gt;gen_half_adder -->
<g id="edge7" class="edge">
<title>gen_all&#45;&gt;gen_half_adder</title>
<path fill="none" stroke="#081d58" d="M404.03,-166.62C452.19,-139.64 544.9,-87.71 598.34,-57.77"/>
<polygon fill="#081d58" stroke="#081d58" points="599.83,-60.95 606.84,-53.01 596.41,-54.85 599.83,-60.95"/>
</g>
<!-- spe_all&#45;&gt;spe_adder -->
<g id="edge8" class="edge">
<title>spe_all&#45;&gt;spe_adder</title>
<path fill="none" stroke="#081d58" d="M595.6,-619.62C593.56,-594.27 589.74,-546.88 587.29,-516.42"/>
<polygon fill="#081d58" stroke="#081d58" points="590.8,-516.47 586.51,-506.78 583.83,-517.03 590.8,-516.47"/>
</g>
<!-- gen_half_adder_p -->
<g id="node17" class="node">
<title>gen_half_adder_p</title>
<ellipse fill="#081d58" stroke="#081d58" cx="782" cy="-185" rx="1.8" ry="1.8"/>
</g>
<!-- spe_all&#45;&gt;gen_half_adder_p -->
<g id="edge13" class="edge">
<title>spe_all&#45;&gt;gen_half_adder_p</title>
<path fill="none" stroke="#081d58" d="M571.76,-619.6C541.34,-597.07 491.39,-554.73 468,-505 430.98,-426.31 397.76,-377.97 452,-310 544.11,-194.56 677.19,-346.01 776,-236.25 789.64,-221.1 783.48,-192.14 782.21,-186.84"/>
</g>
<!-- spe_full_adder_p -->
<g id="node18" class="node">
<title>spe_full_adder_p</title>
<ellipse fill="#081d58" stroke="#081d58" cx="751" cy="-487" rx="1.8" ry="1.8"/>
</g>
<!-- spe_all&#45;&gt;spe_full_adder_p -->
<g id="edge14" class="edge">
<title>spe_all&#45;&gt;spe_full_adder_p</title>
<path fill="none" stroke="#081d58" d="M615.6,-619.79C642.39,-594.88 693.21,-547.13 735,-505 740.94,-499.01 747.79,-491.53 750.15,-488.94"/>
</g>
<!-- spe_adder&#45;&gt;spe_full_adder -->
<g id="edge9" class="edge">
<title>spe_adder&#45;&gt;spe_full_adder</title>
<path fill="none" stroke="#081d58" d="M586.75,-468.62C589.3,-443.27 594.07,-395.88 597.14,-365.42"/>
<polygon fill="#081d58" stroke="#081d58" points="600.59,-366.08 598.11,-355.78 593.63,-365.38 600.59,-366.08"/>
</g>
<!-- spe_adder&#45;&gt;gen_half_adder_p -->
<g id="edge15" class="edge">
<title>spe_adder&#45;&gt;gen_half_adder_p</title>
<path fill="none" stroke="#081d58" d="M558.17,-468.62C511.54,-436.28 424.48,-365.17 468,-310 555.18,-199.49 682.42,-341.39 776,-236.25 789.55,-221.02 783.47,-192.13 782.21,-186.84"/>
</g>
<!-- spe_full_adder&#45;&gt;gen_half_adder_p -->
<g id="edge16" class="edge">
<title>spe_full_adder&#45;&gt;gen_half_adder_p</title>
<path fill="none" stroke="#081d58" d="M659.3,-317.51C699.02,-302.56 748.84,-276.89 776,-236.25 787.33,-219.3 783.05,-191.8 782.15,-186.8"/>
</g>
<!-- sec_all&#45;&gt;sec_adder -->
<g id="edge10" class="edge">
<title>sec_all&#45;&gt;sec_adder</title>
<path fill="none" stroke="#081d58" d="M902.4,-619.62C904.44,-594.27 908.26,-546.88 910.71,-516.42"/>
<polygon fill="#081d58" stroke="#081d58" points="914.17,-517.03 911.49,-506.78 907.2,-516.47 914.17,-517.03"/>
</g>
<!-- sec_all&#45;&gt;gen_half_adder_p -->
<g id="edge17" class="edge">
<title>sec_all&#45;&gt;gen_half_adder_p</title>
<path fill="none" stroke="#081d58" d="M881.92,-619.54C857.83,-596.14 817.44,-552.08 800,-505 776.3,-441.02 781.53,-205.44 781.97,-187.13"/>
</g>
<!-- sec_all&#45;&gt;spe_full_adder_p -->
<g id="edge18" class="edge">
<title>sec_all&#45;&gt;spe_full_adder_p</title>
<path fill="none" stroke="#081d58" d="M883.01,-619.7C857.09,-594.68 807.86,-546.8 767,-505 761.11,-498.97 754.23,-491.52 751.86,-488.93"/>
</g>
<!-- sec_adder&#45;&gt;gen_half_adder_p -->
<g id="edge19" class="edge">
<title>sec_adder&#45;&gt;gen_half_adder_p</title>
<path fill="none" stroke="#081d58" d="M905.39,-468.57C878.52,-407.05 789.35,-202.84 782.43,-186.98"/>
</g>
<!-- sec_adder&#45;&gt;spe_full_adder_p -->
<g id="edge20" class="edge">
<title>sec_adder&#45;&gt;spe_full_adder_p</title>
<path fill="none" stroke="#081d58" d="M809.08,-487C790.46,-487 771.84,-487 753.21,-487"/>
</g>
<!-- top -->
<g id="node14" class="node">
<title>top</title>
<polygon fill="none" stroke="#081d58" points="755.5,-1109 598.5,-1109 598.5,-1073 755.5,-1073 755.5,-1109"/>
<text text-anchor="middle" x="677" y="-1086.33" font-family="Times,serif" font-size="14.00" fill="#081d58">hugom:example:top</text>
</g>
<!-- array_multiplier -->
<g id="node15" class="node">
<title>array_multiplier</title>
<polygon fill="none" stroke="#081d58" points="958.88,-958 699.12,-958 699.12,-922 958.88,-922 958.88,-958"/>
<text text-anchor="middle" x="829" y="-935.33" font-family="Times,serif" font-size="14.00" fill="#081d58">hugom:multiplier:array_multiplier</text>
</g>
<!-- top&#45;&gt;array_multiplier -->
<g id="edge1" class="edge">
<title>top&#45;&gt;array_multiplier</title>
<path fill="none" stroke="#081d58" d="M694.73,-1072.62C721.51,-1046.37 772.38,-996.5 803.24,-966.25"/>
<polygon fill="#081d58" stroke="#081d58" points="805.61,-968.83 810.3,-959.33 800.71,-963.83 805.61,-968.83"/>
</g>
<!-- wallace_tree_multiplier -->
<g id="node16" class="node">
<title>wallace_tree_multiplier</title>
<polygon fill="none" stroke="#081d58" points="681.38,-958 370.62,-958 370.62,-922 681.38,-922 681.38,-958"/>
<text text-anchor="middle" x="526" y="-935.33" font-family="Times,serif" font-size="14.00" fill="#081d58">hugom:multiplier:wallace_tree_multiplier</text>
</g>
<!-- top&#45;&gt;wallace_tree_multiplier -->
<g id="edge2" class="edge">
<title>top&#45;&gt;wallace_tree_multiplier</title>
<path fill="none" stroke="#081d58" d="M659.38,-1072.62C632.79,-1046.37 582.24,-996.5 551.59,-966.25"/>
<polygon fill="#081d58" stroke="#081d58" points="554.16,-963.87 544.58,-959.34 549.24,-968.85 554.16,-963.87"/>
</g>
<!-- array_multiplier&#45;&gt;abs_adder -->
<g id="edge3" class="edge">
<title>array_multiplier&#45;&gt;abs_adder</title>
<path fill="none" stroke="#081d58" d="M820.83,-921.62C808.82,-896.05 786.27,-848.04 771.97,-817.61"/>
<polygon fill="#081d58" stroke="#081d58" points="775.18,-816.21 767.76,-808.64 768.84,-819.18 775.18,-816.21"/>
</g>
<!-- wallace_tree_multiplier&#45;&gt;abs_all -->
<g id="edge4" class="edge">
<title>wallace_tree_multiplier&#45;&gt;abs_all</title>
<path fill="none" stroke="#081d58" d="M534.28,-921.62C546.47,-896.05 569.34,-848.04 583.84,-817.61"/>
<polygon fill="#081d58" stroke="#081d58" points="586.98,-819.17 588.12,-808.64 580.66,-816.16 586.98,-819.17"/>
</g>
<!-- gen_half_adder_p&#45;&gt;gen_half_adder -->
<g id="edge11" class="edge">
<title>gen_half_adder_p&#45;&gt;gen_half_adder</title>
<path fill="none" stroke="#081d58" d="M781.82,-183.01C781.28,-180.28 779.52,-172.48 776,-167 747.99,-123.45 702.9,-83.73 672.16,-59.49"/>
<polygon fill="#081d58" stroke="#081d58" points="674.36,-56.77 664.31,-53.4 670.07,-62.3 674.36,-56.77"/>
</g>
<!-- spe_full_adder_p&#45;&gt;spe_full_adder -->
<g id="edge12" class="edge">
<title>spe_full_adder_p&#45;&gt;spe_full_adder</title>
<path fill="none" stroke="#081d58" d="M750.47,-484.98C748.63,-481.46 742.16,-469.52 735,-461 703.05,-422.96 659.87,-385.2 631.03,-361.53"/>
<polygon fill="#081d58" stroke="#081d58" points="633.35,-358.9 623.38,-355.31 628.93,-364.33 633.35,-358.9"/>
</g>
</g>
</svg>
